# xmcd
#
# Track frame offsets: 
#        150
#        11467
#        25375
#        38011
#        51726
#        66219
#        81125
#        95682
#        109943
#        124237
#        138807
#        152286
#        172683
#        187552
#        202452
#        224720
#
# Disc length: 3211 seconds
#
# Revision: 0
# Processed by: cddbd v1.5.2PL0 Copyright (c) Steve Scherf et al.
# Submitted via: ExactAudioCopyFreeDBPlugin 1.0
#
DISCID=dc0c8910
DTITLE=Tommy Dorsey and his Orchestra - Featuring Frank Sinatra
DYEAR=1900
DGENRE=
TTITLE0=A-Tisket, A-Tasket
TTITLE1=Boogie Woogie 1938
TTITLE2=You Must have been a Beatyful Day
TTITLE3=Hear My Song, Violetta
TTITLE4=Fool Rush In
TTITLE5=Polka Dots and Monbeams
TTITLE6=I´ll never smile again
TTITLE7=Somewhere a Voice is Calling
TTITLE8=Too Romantic
TTITLE9=Imagination
TTITLE10=Whispering
TTITLE11=For You
TTITLE12=Blue Skies
TTITLE13=What is this Thing Called Love
TTITLE14=Let´s get away from it All
TTITLE15=Yes Indeed!
EXTD=
EXTT0=
EXTT1=
EXTT2=
EXTT3=
EXTT4=
EXTT5=
EXTT6=
EXTT7=
EXTT8=
EXTT9=
EXTT10=
EXTT11=
EXTT12=
EXTT13=
EXTT14=
EXTT15=
PLAYORDER=
